<svg width="1024" height="722" viewBox="0 0 1024 722" fill="none" xmlns="http://www.w3.org/2000/svg">
<path d="M1002.61 112.656C990.828 68.3129 956.132 33.3906 912.068 21.539C832.218 0 512 0 512 0C512 0 191.787 0 111.932 21.539C67.8678 33.3906 33.1637 68.3129 21.395 112.656C0 193.03 0 360.73 0 360.73C0 360.73 0 528.42 21.395 608.803C33.1637 653.151 67.8678 688.065 111.928 699.929C191.782 721.459 511.996 721.46 511.996 721.46C511.996 721.46 832.213 721.459 912.064 699.929C956.128 688.069 990.823 653.151 1002.6 608.808C1024 528.425 1024 360.734 1024 360.734C1024 360.734 1024 193.035 1002.6 112.661" fill="#282828"/>
<path d="M407.272 512.986L674.908 360.739L407.272 208.473V512.986Z" fill="white"/>
</svg>
